<svg width="48" height="48" viewBox="0 0 48 48" fill="none" xmlns="http://www.w3.org/2000/svg">
<path d="M0 24C0 10.7452 10.7452 0 24 0C37.2548 0 48 10.7452 48 24C48 37.2548 37.2548 48 24 48C10.7452 48 0 37.2548 0 24Z" fill="#F4EBFF"/>
<path d="M28 25.3744C31.5318 26.0688 34 27.6547 34 29.5C34 31.9853 29.5228 34 24 34C18.4772 34 14 31.9853 14 29.5C14 27.6547 16.4682 26.0688 20 25.3744M24 29V15L29.3177 18.2724C29.7056 18.5111 29.8995 18.6305 29.9614 18.7809C30.0154 18.912 30.0111 19.0599 29.9497 19.1877C29.8792 19.3343 29.6787 19.4422 29.2777 19.6581L24 22.5" stroke="#7F56D9" stroke-width="2" stroke-linecap="round" stroke-linejoin="round"/>
</svg>
